<?xml version="1.0" encoding="utf-8"?>
<!-- Generator: Adobe Illustrator 16.0.2, SVG Export Plug-In . SVG Version: 6.00 Build 0)  -->
<!DOCTYPE svg PUBLIC "-//W3C//DTD SVG 1.1//EN" "http://www.w3.org/Graphics/SVG/1.1/DTD/svg11.dtd">
<svg version="1.1" id="Layer_1" xmlns="http://www.w3.org/2000/svg" xmlns:xlink="http://www.w3.org/1999/xlink" x="0px" y="0px"
	 width="1373.316px" height="1373.316px" viewBox="0 0 1373.316 1373.316" enable-background="new 0 0 1373.316 1373.316"
	 xml:space="preserve">
<g>
	<circle fill="#FFDD57" cx="686.658" cy="686.657" r="686.658"/>
	<g>
		<path fill="#FFFFFF" d="M576.351,521.823l67.176-67.181l-40.661-40.655L703.4,313.448l-10.06-10.051
			c-33.142-33.143-96.618-21.85-171.111,29.948l-15.258-15.257L297.707,527.346l20.825,20.82l-16.005,16.004l-3.269-3.266
			c-9.677-9.68-26.165-8.949-36.745,1.637l-36.821,36.816c-10.58,10.586-11.313,27.075-1.627,36.749l101.433,101.442
			c9.686,9.689,26.169,8.953,36.75-1.628l36.82-36.823c10.59-10.586,11.318-27.06,1.641-36.757l-3.268-3.255l16.005-16.011
			l20.82,20.835l58.742-58.742l100.525,100.521l83.351-83.342L576.351,521.823z"/>
		<path fill="#FFFFFF" d="M717.764,869.595l203.764,215.784c5.359,5.669,16.223,3.826,24.15-4.105l106.844-106.838
			c7.922-7.928,9.748-18.762,4.043-24.099L839.856,747.501l-14.809,14.811L717.764,869.595z"/>
		<path fill="#FFFFFF" d="M1007.542,531.059l-95.308-95.309l125.162-125.153c-23.407-15.574-50.471-23.372-77.52-23.372
			c-35.846,0-71.683,13.668-99.035,41.018l-56.113,56.117c-47.997,47.994-53.876,122.143-17.646,176.545l-81.715,81.723
			L376.934,971.056c-26.316,26.314-26.316,68.979,0,95.301c13.158,13.151,30.407,19.728,47.642,19.728
			c17.249,0,34.494-6.576,47.651-19.728l328.434-328.431l81.719-81.713c23.407,15.581,50.457,23.372,77.52,23.372
			c35.842,0,71.679-13.677,99.025-41.019l56.123-56.122c47.987-47.991,53.861-122.13,17.646-176.554L1007.542,531.059z
			 M448.404,1042.531c-6.569,6.581-15.196,9.872-23.818,9.872c-8.618,0-17.245-3.291-23.833-9.872
			c-13.148-13.163-13.158-34.49,0-47.645c6.588-6.583,15.215-9.878,23.833-9.878c8.622,0,17.239,3.295,23.818,9.878
			C461.571,1008.041,461.571,1029.368,448.404,1042.531z"/>
	</g>
</g>
</svg>
